<svg width="205" height="205" viewBox="0 0 205 205" fill="none" xmlns="http://www.w3.org/2000/svg">
<path d="M114.918 25.9041L130.077 100.072L204.246 115.232L130.077 130.391L114.918 204.56L99.7583 130.391L25.5898 115.232L99.7583 100.072L114.918 25.9041Z" fill="#ED4C4E"/>
<path d="M62.5416 42.887L66.8058 63.7502L87.6691 68.0145L66.8058 72.2787L62.5416 93.142L58.2773 72.2787L37.4141 68.0145L58.2773 63.7502L62.5416 42.887Z" fill="#ED4C4E"/>
<path d="M87.6822 0.776367L91.9465 21.6396L112.81 25.9039L91.9465 30.1681L87.6822 51.0314L83.4179 30.1681L62.5547 25.9039L83.4179 21.6396L87.6822 0.776367Z" fill="#ED4C4E"/>
<path d="M25.5962 0.776367L29.8605 21.6396L50.7237 25.9039L29.8605 30.1681L25.5962 51.0314L21.332 30.1681L0.46875 25.9039L21.332 21.6396L25.5962 0.776367Z" fill="#ED4C4E"/>
</svg>
